HIERARCHY
ROOT Hips
{
	OFFSET -0.001795 -0.223333 0.028219
	CHANNELS 6 Xposition Yposition Zposition Zrotation Yrotation Xrotation 
	JOINT LeftUpLeg
	{
		OFFSET 0.069520 -0.091406 -0.006815
		CHANNELS 3 Zrotation Yrotation Xrotation
		JOINT LeftLeg
		{
			OFFSET 0.034277 -0.375199 -0.004496
			CHANNELS 3 Zrotation Yrotation Xrotation
			JOINT LeftFoot
			{
				OFFSET -0.013596 -0.397961 -0.043693
				CHANNELS 3 Zrotation Yrotation Xrotation
				JOINT LeftToe
				{
					OFFSET 0.026358 -0.055791 0.119288
					CHANNELS 3 Zrotation Yrotation Xrotation
					End Site
					{
						OFFSET 0.000000 0.000000 0.000000
					}
				}
			}
		}
	}
	JOINT RightUpLeg
	{
		OFFSET -0.067670 -0.090522 -0.004320
		CHANNELS 3 Zrotation Yrotation Xrotation
		JOINT RightLeg
		{
			OFFSET -0.038290 -0.382569 -0.008850
			CHANNELS 3 Zrotation Yrotation Xrotation
			JOINT RightFoot
			{
				OFFSET 0.015774 -0.398415 -0.042312
				CHANNELS 3 Zrotation Yrotation Xrotation
				JOINT RightToe
				{
					OFFSET -0.025372 -0.048144 0.123348
					CHANNELS 3 Zrotation Yrotation Xrotation
					End Site
					{
						OFFSET 0.000000 0.000000 0.000000
					}
				}
			}
		}
	}
	JOINT Spine
	{
		OFFSET -0.002533 0.108963 -0.026696
		CHANNELS 3 Zrotation Yrotation Xrotation
		JOINT Spine1
		{
			OFFSET 0.005487 0.135180 0.001092
			CHANNELS 3 Zrotation Yrotation Xrotation
			JOINT Spine2
			{
				OFFSET 0.001457 0.052922 0.025425
				CHANNELS 3 Zrotation Yrotation Xrotation
				JOINT Neck
				{
					OFFSET -0.002778 0.213870 -0.042857
					CHANNELS 3 Zrotation Yrotation Xrotation
					JOINT Head
					{
						OFFSET 0.005152 0.064970 0.051349
						CHANNELS 3 Zrotation Yrotation Xrotation
						End Site
						{
							OFFSET 0.000000 0.000000 0.000000
						}
					}
				}
				JOINT LeftShoulder
				{
					OFFSET 0.078845 0.121749 -0.034090
					CHANNELS 3 Zrotation Yrotation Xrotation
					JOINT LeftArm
					{
						OFFSET 0.090977 0.030469 -0.008868
						CHANNELS 3 Zrotation Yrotation Xrotation
						JOINT LeftForeArm
						{
							OFFSET 0.259612 -0.012772 -0.027456
							CHANNELS 3 Zrotation Yrotation Xrotation
							JOINT LeftHand
							{
								OFFSET 0.249234 0.008986 -0.001171
								CHANNELS 3 Zrotation Yrotation Xrotation
								End Site
								{
									OFFSET 0.000000 0.000000 0.000000
								}
							}
						}
					}
				}
				JOINT RightShoulder
				{
					OFFSET -0.081759 0.118833 -0.038615
					CHANNELS 3 Zrotation Yrotation Xrotation
					JOINT RightArm
					{
						OFFSET -0.096012 0.032551 -0.009143
						CHANNELS 3 Zrotation Yrotation Xrotation
						JOINT RightForeArm
						{
							OFFSET -0.253742 -0.013329 -0.021401
							CHANNELS 3 Zrotation Yrotation Xrotation
							JOINT RightHand
							{
								OFFSET -0.255298 0.007772 -0.005559
								CHANNELS 3 Zrotation Yrotation Xrotation
								End Site
								{
									OFFSET 0.000000 0.000000 0.000000
								}
							}
						}
					}
				}
			}
		}
	}
}
MOTION
Frames: 7
Frame Time: 0.050000
0.000000 0.902077 0.000000 2.366906 2.139154 -2.891129 6.566929 -0.211588 -4.513868 -3.304831 0.140693 19.909302 2.656474 7.638335 6.287657 0.000000 0.000000 0.000000 -5.022387 0.848435 -14.694745 -2.036826 1.830762 29.399098 3.441002 20.284217 -11.556287 0.000000 0.000000 0.000000 8.223394 -1.133882 10.035434 1.697216 -0.758263 -1.247175 -2.053734 -1.902437 7.745242 5.236073 -2.952548 -10.261114 0.000000 0.000000 0.000000 -20.346919 -7.932869 2.649626 -50.428056 -7.493911 -3.300607 -12.552435 -31.293885 4.826524 0.000000 0.000000 0.000000 18.012018 -0.465984 -1.950305 50.029754 5.277689 -3.031467 0.578137 36.219130 1.460710 0.000000 0.000000 0.000000 
-0.002008 0.901711 0.002466 2.311564 1.292758 -2.763067 6.580120 -0.187125 -4.126107 -3.139612 0.145508 19.557334 3.042514 8.292766 6.307312 0.000000 0.000000 0.000000 -3.928784 1.065884 -15.752660 -3.425552 2.557570 30.958643 3.556642 20.711019 -11.398444 0.000000 0.000000 0.000000 9.425372 -1.237489 10.079176 0.985261 -0.476201 -0.037195 -1.669464 -2.083093 6.835065 5.067328 -3.206829 -7.613739 0.000000 0.000000 0.000000 -21.507009 -8.602884 3.198029 -50.438483 -7.409832 -3.312344 -10.691615 -31.986479 4.441206 0.000000 0.000000 0.000000 17.155345 -0.081499 -1.834524 50.530323 4.166835 -3.397378 0.063587 38.089953 1.274181 0.000000 0.000000 0.000000 
-0.003914 0.897910 0.004667 2.973192 2.299431 -3.984800 6.149290 -0.167924 -3.481387 -3.148000 0.071490 20.832733 2.720599 7.514436 5.463701 0.000000 0.000000 0.000000 -3.996110 0.968628 -14.901321 -4.215326 2.909487 32.608524 2.846967 19.970165 -12.998326 0.000000 0.000000 0.000000 9.156247 -1.345908 11.363159 1.695558 -0.804864 -0.395840 -1.793209 -2.990923 7.309971 3.864525 -2.257918 -8.723452 0.000000 0.000000 0.000000 -21.459107 -8.840422 3.459644 -50.191431 -7.927200 -3.178373 -12.175596 -32.524680 4.994601 0.000000 0.000000 0.000000 17.896654 0.596093 -1.646093 48.836034 4.698472 -3.104267 -1.619467 38.387379 0.680598 0.000000 0.000000 0.000000 
-0.005713 0.895586 0.006932 3.302968 2.761679 -4.651905 6.597391 -0.160772 -3.741987 -4.152561 0.319507 22.686612 2.382037 7.029140 5.833443 0.000000 0.000000 0.000000 -4.000452 0.961666 -15.088630 -4.471150 3.134275 34.684199 2.672659 19.612463 -13.314667 0.000000 0.000000 0.000000 9.955954 -1.527705 12.278896 1.709524 -0.851208 0.304638 -1.994263 -3.155924 6.504033 3.675098 -2.367065 -6.328534 0.000000 0.000000 0.000000 -21.794449 -8.888491 3.421493 -49.565434 -8.179220 -2.968461 -12.218576 -33.575580 5.158929 0.000000 0.000000 0.000000 17.241392 0.090096 -1.833022 48.780308 4.427987 -3.141605 -1.136891 39.722225 0.852237 0.000000 0.000000 0.000000 
-0.007260 0.892227 0.009137 4.136731 3.965681 -5.481542 5.542871 -0.192835 -3.829907 -3.511996 -0.002183 24.469721 2.012364 6.320072 5.571325 0.000000 0.000000 0.000000 -4.611624 0.788906 -14.049755 -4.799271 3.196977 35.425240 1.967065 18.780447 -14.987058 0.000000 0.000000 0.000000 10.029462 -1.646549 13.156213 2.228263 -1.115282 0.377780 -2.493790 -3.538827 6.907557 2.894718 -1.867954 -5.534101 0.000000 0.000000 0.000000 -22.561374 -10.227202 4.128594 -48.534946 -8.918191 -2.648955 -12.145006 -34.557914 5.268284 0.000000 0.000000 0.000000 17.692685 0.553815 -1.567787 47.517791 5.112483 -2.860737 -1.942035 39.799253 0.619208 0.000000 0.000000 0.000000 
-0.008525 0.889259 0.011382 4.453611 4.869506 -5.832901 5.432874 -0.198842 -3.809882 -3.410945 -0.161432 26.315081 1.424982 4.034525 2.389230 0.000000 0.000000 0.000000 -4.499917 0.782785 -14.162357 -5.305298 3.421500 37.024297 1.598015 17.954778 -15.698266 0.000000 0.000000 0.000000 10.361331 -1.748592 13.579965 2.301267 -1.176851 0.720965 -2.616545 -3.520735 6.871315 2.296704 -1.555378 -3.904305 0.000000 0.000000 0.000000 -23.114519 -10.782660 4.314294 -48.464708 -9.540619 -2.360889 -11.278933 -34.979510 5.024886 0.000000 0.000000 0.000000 17.455228 0.750348 -1.331172 46.758736 5.287341 -2.786399 -2.228609 39.615491 0.576976 0.000000 0.000000 0.000000 
-0.009218 0.888243 0.013682 5.204392 5.982854 -5.926141 4.727281 -0.233671 -3.987668 -3.235585 -0.382191 28.048985 0.864419 1.901991 0.169483 0.000000 0.000000 0.000000 -5.274559 0.655722 -14.268136 -5.274908 3.333799 38.233747 1.443335 17.186128 -15.846523 0.000000 0.000000 0.000000 10.385467 -1.758472 13.496892 2.434386 -1.251955 0.816014 -2.994900 -4.161736 7.483034 2.360165 -1.622587 -3.920597 0.000000 0.000000 0.000000 -23.964378 -11.245453 4.661259 -48.009244 -9.901269 -2.267121 -10.762951 -34.914683 4.861749 0.000000 0.000000 0.000000 17.476788 1.505015 -0.938102 45.747630 5.365250 -2.754815 -2.737269 39.684795 0.406335 0.000000 0.000000 0.000000 
